# Blender 4.0.2
# www.blender.org
mtllib pistol_9mm.mtl
o pistol_9mm
v -0.340000 -0.070000 0.060000
v -0.340000 0.070000 0.060000
v -0.340000 -0.070000 -0.060000
v -0.340000 0.070000 -0.060000
v 0.340000 -0.070000 0.060000
v 0.340000 0.070000 0.060000
v 0.340000 -0.070000 -0.060000
v 0.340000 0.070000 -0.060000
v -0.280000 -0.140000 0.075000
v -0.280000 -0.040000 0.075000
v -0.280000 -0.140000 -0.035000
v -0.280000 -0.040000 -0.035000
v 0.280000 -0.140000 0.075000
v 0.280000 -0.040000 0.075000
v 0.280000 -0.140000 -0.035000
v 0.280000 -0.040000 -0.035000
v -0.095000 -0.360000 0.075000
v -0.095000 -0.100000 0.075000
v -0.095000 -0.360000 -0.035000
v -0.095000 -0.100000 -0.035000
v 0.015000 -0.360000 0.075000
v 0.015000 -0.100000 0.075000
v 0.015000 -0.360000 -0.035000
v 0.015000 -0.100000 -0.035000
v 0.260000 0.000000 -0.035000
v 0.480000 -0.000000 -0.035000
v 0.260000 -0.013394 -0.032336
v 0.480000 -0.013394 -0.032336
v 0.260000 -0.024749 -0.024749
v 0.480000 -0.024749 -0.024749
v 0.260000 -0.032336 -0.013394
v 0.480000 -0.032336 -0.013394
v 0.260000 -0.035000 0.000000
v 0.480000 -0.035000 0.000000
v 0.260000 -0.032336 0.013394
v 0.480000 -0.032336 0.013394
v 0.260000 -0.024749 0.024749
v 0.480000 -0.024749 0.024749
v 0.260000 -0.013394 0.032336
v 0.480000 -0.013394 0.032336
v 0.260000 0.000000 0.035000
v 0.480000 -0.000000 0.035000
v 0.260000 0.013394 0.032336
v 0.480000 0.013394 0.032336
v 0.260000 0.024749 0.024749
v 0.480000 0.024749 0.024749
v 0.260000 0.032336 0.013394
v 0.480000 0.032336 0.013394
v 0.260000 0.035000 0.000000
v 0.480000 0.035000 0.000000
v 0.260000 0.032336 -0.013394
v 0.480000 0.032336 -0.013394
v 0.260000 0.024749 -0.024749
v 0.480000 0.024749 -0.024749
v 0.260000 0.013394 -0.032336
v 0.480000 0.013394 -0.032336
vn -1.0000 -0.0000 -0.0000
vn -0.0000 -0.0000 -1.0000
vn 1.0000 -0.0000 -0.0000
vn -0.0000 -0.0000 1.0000
vn -0.0000 -1.0000 -0.0000
vn -0.0000 1.0000 -0.0000
vn -0.0000 -0.1951 -0.9808
vn -0.0000 -0.5556 -0.8315
vn -0.0000 -0.8315 -0.5556
vn -0.0000 -0.9808 -0.1951
vn -0.0000 -0.9808 0.1951
vn -0.0000 -0.8315 0.5556
vn -0.0000 -0.5556 0.8315
vn -0.0000 -0.1951 0.9808
vn -0.0000 0.1951 0.9808
vn -0.0000 0.5556 0.8315
vn -0.0000 0.8315 0.5556
vn -0.0000 0.9808 0.1951
vn -0.0000 0.9808 -0.1951
vn -0.0000 0.8315 -0.5556
vn -0.0000 0.5556 -0.8315
vn -0.0000 0.1951 -0.9808
vt 0.375000 0.000000
vt 0.625000 0.000000
vt 0.625000 0.250000
vt 0.375000 0.250000
vt 0.625000 0.500000
vt 0.375000 0.500000
vt 0.625000 0.750000
vt 0.375000 0.750000
vt 0.625000 1.000000
vt 0.375000 1.000000
vt 0.125000 0.500000
vt 0.125000 0.750000
vt 0.875000 0.500000
vt 0.875000 0.750000
vt 1.000000 0.500000
vt 1.000000 1.000000
vt 0.937500 1.000000
vt 0.937500 0.500000
vt 0.875000 1.000000
vt 0.812500 1.000000
vt 0.812500 0.500000
vt 0.750000 1.000000
vt 0.750000 0.500000
vt 0.687500 1.000000
vt 0.687500 0.500000
vt 0.562500 1.000000
vt 0.562500 0.500000
vt 0.500000 1.000000
vt 0.500000 0.500000
vt 0.437500 1.000000
vt 0.437500 0.500000
vt 0.312500 1.000000
vt 0.312500 0.500000
vt 0.250000 1.000000
vt 0.250000 0.500000
vt 0.187500 1.000000
vt 0.187500 0.500000
vt 0.125000 1.000000
vt 0.341844 0.471731
vt 0.250000 0.490000
vt 0.158156 0.471731
vt 0.080294 0.419706
vt 0.028269 0.341844
vt 0.010000 0.250000
vt 0.028269 0.158156
vt 0.080294 0.080294
vt 0.158156 0.028269
vt 0.250000 0.010000
vt 0.341844 0.028269
vt 0.419706 0.080294
vt 0.471731 0.158156
vt 0.490000 0.250000
vt 0.471731 0.341844
vt 0.419706 0.419706
vt 0.062500 1.000000
vt 0.062500 0.500000
vt 0.000000 1.000000
vt 0.000000 0.500000
vt 0.750000 0.490000
vt 0.841844 0.471731
vt 0.919706 0.419706
vt 0.971731 0.341844
vt 0.990000 0.250000
vt 0.971731 0.158156
vt 0.919706 0.080294
vt 0.841844 0.028269
vt 0.750000 0.010000
vt 0.658156 0.028269
vt 0.580294 0.080294
vt 0.528269 0.158156
vt 0.510000 0.250000
vt 0.528269 0.341844
vt 0.580294 0.419706
vt 0.658156 0.471731
s 0
usemtl steel
f 1/1/1 2/2/1 4/3/1 3/4/1
f 3/4/2 4/3/2 8/5/2 7/6/2
f 7/6/3 8/5/3 6/7/3 5/8/3
f 5/8/4 6/7/4 2/9/4 1/10/4
f 3/11/5 7/6/5 5/8/5 1/12/5
f 8/5/6 4/13/6 2/14/6 6/7/6
f 25/15/7 26/16/7 28/17/7 27/18/7
f 27/18/8 28/17/8 30/19/8 29/13/8
f 29/13/9 30/19/9 32/20/9 31/21/9
f 31/21/10 32/20/10 34/22/10 33/23/10
f 33/23/11 34/22/11 36/24/11 35/25/11
f 35/25/12 36/24/12 38/9/12 37/5/12
f 37/5/13 38/9/13 40/26/13 39/27/13
f 39/27/14 40/26/14 42/28/14 41/29/14
f 41/29/15 42/28/15 44/30/15 43/31/15
f 43/31/16 44/30/16 46/10/16 45/6/16
f 45/6/17 46/10/17 48/32/17 47/33/17
f 47/33/18 48/32/18 50/34/18 49/35/18
f 49/35/19 50/34/19 52/36/19 51/37/19
f 51/37/20 52/36/20 54/38/20 53/11/20
f 28/39/3 26/40/3 56/41/3 54/42/3 52/43/3 50/44/3 48/45/3 46/46/3 44/47/3 42/48/3 40/49/3 38/50/3 36/51/3 34/52/3 32/53/3 30/54/3
f 53/11/21 54/38/21 56/55/21 55/56/21
f 55/56/22 56/55/22 26/57/22 25/58/22
f 25/59/1 27/60/1 29/61/1 31/62/1 33/63/1 35/64/1 37/65/1 39/66/1 41/67/1 43/68/1 45/69/1 47/70/1 49/71/1 51/72/1 53/73/1 55/74/1
usemtl polymer
f 9/1/1 10/2/1 12/3/1 11/4/1
f 11/4/2 12/3/2 16/5/2 15/6/2
f 15/6/3 16/5/3 14/7/3 13/8/3
f 13/8/4 14/7/4 10/9/4 9/10/4
f 11/11/5 15/6/5 13/8/5 9/12/5
f 16/5/6 12/13/6 10/14/6 14/7/6
f 17/1/1 18/2/1 20/3/1 19/4/1
f 19/4/2 20/3/2 24/5/2 23/6/2
f 23/6/3 24/5/3 22/7/3 21/8/3
f 21/8/4 22/7/4 18/9/4 17/10/4
f 19/11/5 23/6/5 21/8/5 17/12/5
f 24/5/6 20/13/6 18/14/6 22/7/6
